ffmpeg started on 2025-05-12 at 17:28:10
Report written to "D:\Convert\FFMetrics\reports\psnr_report-6.txt"
Log level: 32
Command line:
ffmpeg -hide_banner -nostdin -i "G:\\\xc0\xed\xe8\xec\xe5\\\xce\xed\xe3\xee\xe8\xed\xe3\xe8\\!_35_\xcb\xe5\xf2\xee_2024\\DreamCast\\\xce\xef\xe5\xf0\xe0\xf6\xe8\xff - \xd1\xe5\xec\xe5\xe9\xea\xe0 \xa8\xe4\xe7\xe0\xea\xf3\xf0\xe0\\[DC] Yozakura-san Chi no Daisakusen - 14_Telegram_HEVC.mkv" -i "G:\\\xc0\xed\xe8\xec\xe5\\\xce\xed\xe3\xee\xe8\xed\xe3\xe8\\!_35_\xcb\xe5\xf2\xee_2024\\DreamCast\\\xce\xef\xe5\xf0\xe0\xf6\xe8\xff - \xd1\xe5\xec\xe5\xe9\xea\xe0 \xa8\xe4\xe7\xe0\xea\xf3\xf0\xe0\\[DC] Yozakura-san Chi no Daisakusen - 14_Telegram.mp4" -lavfi "[0:v]settb=AVTB,setpts=PTS-STARTPTS,format=pix_fmts=yuv420p10,fps=24000/1001,scale=1920:1080:flags=bicubic[main];[1:v]settb=AVTB,setpts=PTS-STARTPTS,format=pix_fmts=yuv420p,fps=24000/1001,scale=1920:1080:flags=bicubic[ref];[main][ref]psnr=eof_action=endall:stats_file='D\\:/Convert/FFMetrics/logs/psnr_logfile-6.txt'" -f null -
Input #0, matroska,webm, from 'G:\Аниме\Онгоинги\!_35_Лето_2024\DreamCast\Операция - Семейка Ёдзакура\[DC] Yozakura-san Chi no Daisakusen - 14_Telegram_HEVC.mkv':
  Metadata:
    COMPATIBLE_BRANDS: isomiso2avc1mp41
    MAJOR_BRAND     : isom
    MINOR_VERSION   : 512
    ENCODER         : Lavf61.7.100
  Duration: 00:24:13.74, start: -0.021000, bitrate: 1615 kb/s
  Stream #0:0: Video: hevc (Main 10), yuv420p10le(tv, bt709, progressive), 1920x1080 [SAR 1:1 DAR 16:9], 23.98 fps, 23.98 tbr, 1k tbn (default)
      Metadata:
        HANDLER_NAME    : VideoHandler
        VENDOR_ID       : [0][0][0][0]
        ENCODER         : Lavc61.19.100 libx265
        BPS             : 1416853
        DURATION        : 00:24:13.618708333
        NUMBER_OF_FRAMES: 34852
        NUMBER_OF_BYTES : 257445487
        _STATISTICS_WRITING_APP: mkvpropedit v66.0.0 ('Josie') 64-bit
        _STATISTICS_WRITING_DATE_UTC: 2025-05-08 15:11:09
        _STATISTICS_TAGS: BPS DURATION NUMBER_OF_FRAMES NUMBER_OF_BYTES
  Stream #0:1: Audio: aac (LC), 48000 Hz, stereo, fltp (default)
      Metadata:
        HANDLER_NAME    : SoundHandler
        VENDOR_ID       : [0][0][0][0]
        ENCODER         : Lavc61.19.100 aac
        BPS             : 194245
        DURATION        : 00:24:13.738000000
        NUMBER_OF_FRAMES: 68145
        NUMBER_OF_BYTES : 35297721
        _STATISTICS_WRITING_APP: mkvpropedit v66.0.0 ('Josie') 64-bit
        _STATISTICS_WRITING_DATE_UTC: 2025-05-08 15:11:09
        _STATISTICS_TAGS: BPS DURATION NUMBER_OF_FRAMES NUMBER_OF_BYTES
Input #1, mov,mp4,m4a,3gp,3g2,mj2, from 'G:\Аниме\Онгоинги\!_35_Лето_2024\DreamCast\Операция - Семейка Ёдзакура\[DC] Yozakura-san Chi no Daisakusen - 14_Telegram.mp4':
  Metadata:
    major_brand     : isom
    minor_version   : 512
    compatible_brands: isomiso2avc1mp41
    encoder         : Lavf61.1.100
  Duration: 00:24:13.68, start: 0.000000, bitrate: 3718 kb/s
  Stream #1:0[0x1](und): Video: h264 (High) (avc1 / 0x31637661), yuv420p(tv, bt709, progressive), 1920x1080 [SAR 1:1 DAR 16:9], 3570 kb/s, 23.98 fps, 23.98 tbr, 24k tbn (default)
      Metadata:
        handler_name    : VideoHandler
        vendor_id       : [0][0][0][0]
        encoder         : Lavc61.3.100 h264_qsv
  Stream #1:1[0x2](und): Audio: aac (HE-AACv2) (mp4a / 0x6134706D), 48000 Hz, stereo, fltp, 144 kb/s (default)
      Metadata:
        handler_name    : SoundHandler
        vendor_id       : [0][0][0][0]
Stream mapping:
  Stream #0:0 (hevc) -> settb:default
  Stream #1:0 (h264) -> settb:default
  psnr:default -> Stream #0:0 (wrapped_avframe)
  Stream #0:1 -> #0:1 (aac (native) -> pcm_s16le (native))
Output #0, null, to 'pipe:':
  Metadata:
    COMPATIBLE_BRANDS: isomiso2avc1mp41
    MAJOR_BRAND     : isom
    MINOR_VERSION   : 512
    encoder         : Lavf61.7.100
  Stream #0:0: Video: wrapped_avframe, yuv420p10le(tv, bt709, progressive), 1920x1080 [SAR 1:1 DAR 16:9], q=2-31, 200 kb/s, 23.98 fps, 23.98 tbn
      Metadata:
        encoder         : Lavc61.19.100 wrapped_avframe
  Stream #0:1: Audio: pcm_s16le, 48000 Hz, stereo, s16, 1536 kb/s (default)
      Metadata:
        HANDLER_NAME    : SoundHandler
        VENDOR_ID       : [0][0][0][0]
        _STATISTICS_TAGS: BPS DURATION NUMBER_OF_FRAMES NUMBER_OF_BYTES
        BPS             : 194245
        DURATION        : 00:24:13.738000000
        NUMBER_OF_FRAMES: 68145
        NUMBER_OF_BYTES : 35297721
        _STATISTICS_WRITING_APP: mkvpropedit v66.0.0 ('Josie') 64-bit
        _STATISTICS_WRITING_DATE_UTC: 2025-05-08 15:11:09
        encoder         : Lavc61.19.100 pcm_s16le
frame=  167 fps=0.0 q=-0.0 size=N/A time=00:00:06.96 bitrate=N/A speed=13.5x    frame=  378 fps=368 q=-0.0 size=N/A time=00:00:15.76 bitrate=N/A speed=15.4x    frame=  624 fps=407 q=-0.0 size=N/A time=00:00:26.02 bitrate=N/A speed=  17x    frame=  865 fps=419 q=-0.0 size=N/A time=00:00:36.07 bitrate=N/A speed=17.5x    frame= 1122 fps=437 q=-0.0 size=N/A time=00:00:46.79 bitrate=N/A speed=18.2x    frame= 1398 fps=452 q=-0.0 size=N/A time=00:00:58.30 bitrate=N/A speed=18.8x    frame= 1669 fps=464 q=-0.0 size=N/A time=00:01:09.61 bitrate=N/A speed=19.3x    frame= 1966 fps=477 q=-0.0 size=N/A time=00:01:21.99 bitrate=N/A speed=19.9x    frame= 2226 fps=481 q=-0.0 size=N/A time=00:01:32.84 bitrate=N/A speed=20.1x    frame= 2423 fps=471 q=-0.0 size=N/A time=00:01:41.05 bitrate=N/A speed=19.6x    frame= 2689 fps=475 q=-0.0 size=N/A time=00:01:52.19 bitrate=N/A speed=19.8x    frame= 2882 fps=466 q=-0.0 size=N/A time=00:02:00.20 bitrate=N/A speed=19.5x    frame= 3110 fps=464 q=-0.0 size=N/A time=00:02:09.71 bitrate=N/A speed=19.4x    frame= 3290 fps=457 q=-0.0 size=N/A time=00:02:17.22 bitrate=N/A speed=  19x    frame= 3472 fps=449 q=-0.0 size=N/A time=00:02:24.81 bitrate=N/A speed=18.7x    frame= 3644 fps=442 q=-0.0 size=N/A time=00:02:31.98 bitrate=N/A speed=18.5x    frame= 3799 fps=434 q=-0.0 size=N/A time=00:02:38.44 bitrate=N/A speed=18.1x    frame= 3957 fps=426 q=-0.0 size=N/A time=00:02:45.03 bitrate=N/A speed=17.8x    frame= 4128 fps=422 q=-0.0 size=N/A time=00:02:52.17 bitrate=N/A speed=17.6x    frame= 4321 fps=419 q=-0.0 size=N/A time=00:03:00.22 bitrate=N/A speed=17.5x    frame= 4514 fps=417 q=-0.0 size=N/A time=00:03:08.27 bitrate=N/A speed=17.4x    frame= 4701 fps=415 q=-0.0 size=N/A time=00:03:16.07 bitrate=N/A speed=17.3x    frame= 4912 fps=414 q=-0.0 size=N/A time=00:03:24.87 bitrate=N/A speed=17.3x    frame= 5147 fps=416 q=-0.0 size=N/A time=00:03:34.67 bitrate=N/A speed=17.4x    frame= 5430 fps=421 q=-0.0 size=N/A time=00:03:46.47 bitrate=N/A speed=17.6x    frame= 5692 fps=425 q=-0.0 size=N/A time=00:03:57.40 bitrate=N/A speed=17.7x    frame= 5959 fps=428 q=-0.0 size=N/A time=00:04:08.53 bitrate=N/A speed=17.9x    frame= 6199 fps=429 q=-0.0 size=N/A time=00:04:18.54 bitrate=N/A speed=17.9x    frame= 6340 fps=424 q=-0.0 size=N/A time=00:04:24.43 bitrate=N/A speed=17.7x    frame= 6537 fps=423 q=-0.0 size=N/A time=00:04:32.64 bitrate=N/A speed=17.6x    frame= 6766 fps=423 q=-0.0 size=N/A time=00:04:42.19 bitrate=N/A speed=17.7x    frame= 6998 fps=424 q=-0.0 size=N/A time=00:04:51.87 bitrate=N/A speed=17.7x    frame= 7225 fps=425 q=-0.0 size=N/A time=00:05:01.34 bitrate=N/A speed=17.7x    frame= 7455 fps=425 q=-0.0 size=N/A time=00:05:10.93 bitrate=N/A speed=17.7x    frame= 7702 fps=427 q=-0.0 size=N/A time=00:05:21.23 bitrate=N/A speed=17.8x    frame= 7956 fps=429 q=-0.0 size=N/A time=00:05:31.83 bitrate=N/A speed=17.9x    frame= 8207 fps=430 q=-0.0 size=N/A time=00:05:42.30 bitrate=N/A speed=17.9x    frame= 8452 fps=432 q=-0.0 size=N/A time=00:05:52.51 bitrate=N/A speed=  18x    frame= 8657 fps=431 q=-0.0 size=N/A time=00:06:01.06 bitrate=N/A speed=  18x    frame= 8924 fps=433 q=-0.0 size=N/A time=00:06:12.20 bitrate=N/A speed=  18x    frame= 9142 fps=433 q=-0.0 size=N/A time=00:06:21.29 bitrate=N/A speed=  18x    frame= 9364 fps=432 q=-0.0 size=N/A time=00:06:30.55 bitrate=N/A speed=  18x    frame= 9555 fps=431 q=-0.0 size=N/A time=00:06:38.52 bitrate=N/A speed=  18x    frame= 9794 fps=432 q=-0.0 size=N/A time=00:06:48.49 bitrate=N/A speed=  18x    frame=10004 fps=431 q=-0.0 size=N/A time=00:06:57.25 bitrate=N/A speed=  18x    frame=10219 fps=431 q=-0.0 size=N/A time=00:07:06.21 bitrate=N/A speed=  18x    frame=10425 fps=430 q=-0.0 size=N/A time=00:07:14.80 bitrate=N/A speed=17.9x    frame=10633 fps=430 q=-0.0 size=N/A time=00:07:23.48 bitrate=N/A speed=17.9x    frame=10848 fps=429 q=-0.0 size=N/A time=00:07:32.45 bitrate=N/A speed=17.9x    frame=11065 fps=429 q=-0.0 size=N/A time=00:07:41.50 bitrate=N/A speed=17.9x    frame=11279 fps=429 q=-0.0 size=N/A time=00:07:50.42 bitrate=N/A speed=17.9x    frame=11452 fps=427 q=-0.0 size=N/A time=00:07:57.64 bitrate=N/A speed=17.8x    frame=11660 fps=427 q=-0.0 size=N/A time=00:08:06.31 bitrate=N/A speed=17.8x    frame=11869 fps=426 q=-0.0 size=N/A time=00:08:15.03 bitrate=N/A speed=17.8x    frame=12015 fps=424 q=-0.0 size=N/A time=00:08:21.12 bitrate=N/A speed=17.7x    frame=12161 fps=421 q=-0.0 size=N/A time=00:08:27.21 bitrate=N/A speed=17.6x    frame=12401 fps=422 q=-0.0 size=N/A time=00:08:37.22 bitrate=N/A speed=17.6x    frame=12652 fps=423 q=-0.0 size=N/A time=00:08:47.69 bitrate=N/A speed=17.7x    frame=12842 fps=422 q=-0.0 size=N/A time=00:08:55.61 bitrate=N/A speed=17.6x    frame=12978 fps=419 q=-0.0 size=N/A time=00:09:01.29 bitrate=N/A speed=17.5x    frame=13177 fps=419 q=-0.0 size=N/A time=00:09:09.59 bitrate=N/A speed=17.5x    frame=13439 fps=420 q=-0.0 size=N/A time=00:09:20.51 bitrate=N/A speed=17.5x    frame=13700 fps=422 q=-0.0 size=N/A time=00:09:31.40 bitrate=N/A speed=17.6x    frame=13856 fps=420 q=-0.0 size=N/A time=00:09:37.91 bitrate=N/A speed=17.5x    frame=14062 fps=420 q=-0.0 size=N/A time=00:09:46.50 bitrate=N/A speed=17.5x    frame=14278 fps=420 q=-0.0 size=N/A time=00:09:55.51 bitrate=N/A speed=17.5x    frame=14462 fps=419 q=-0.0 size=N/A time=00:10:03.18 bitrate=N/A speed=17.5x    frame=14669 fps=418 q=-0.0 size=N/A time=00:10:11.81 bitrate=N/A speed=17.5x    frame=14858 fps=418 q=-0.0 size=N/A time=00:10:19.70 bitrate=N/A speed=17.4x    frame=15078 fps=418 q=-0.0 size=N/A time=00:10:28.87 bitrate=N/A speed=17.4x    frame=15280 fps=417 q=-0.0 size=N/A time=00:10:37.30 bitrate=N/A speed=17.4x    frame=15437 fps=416 q=-0.0 size=N/A time=00:10:43.85 bitrate=N/A speed=17.3x    frame=15642 fps=416 q=-0.0 size=N/A time=00:10:52.40 bitrate=N/A speed=17.3x    frame=15855 fps=415 q=-0.0 size=N/A time=00:11:01.28 bitrate=N/A speed=17.3x    frame=16024 fps=414 q=-0.0 size=N/A time=00:11:08.33 bitrate=N/A speed=17.3x    frame=16203 fps=413 q=-0.0 size=N/A time=00:11:15.80 bitrate=N/A speed=17.2x    frame=16382 fps=412 q=-0.0 size=N/A time=00:11:23.26 bitrate=N/A speed=17.2x    frame=16567 fps=412 q=-0.0 size=N/A time=00:11:30.98 bitrate=N/A speed=17.2x    frame=16779 fps=412 q=-0.0 size=N/A time=00:11:39.82 bitrate=N/A speed=17.2x    frame=16976 fps=411 q=-0.0 size=N/A time=00:11:48.04 bitrate=N/A speed=17.2x    frame=17179 fps=411 q=-0.0 size=N/A time=00:11:56.50 bitrate=N/A speed=17.1x    frame=17361 fps=411 q=-0.0 size=N/A time=00:12:04.09 bitrate=N/A speed=17.1x    frame=17540 fps=410 q=-0.0 size=N/A time=00:12:11.56 bitrate=N/A speed=17.1x    frame=17798 fps=411 q=-0.0 size=N/A time=00:12:22.32 bitrate=N/A speed=17.1x    frame=18021 fps=411 q=-0.0 size=N/A time=00:12:31.62 bitrate=N/A speed=17.1x    frame=18213 fps=411 q=-0.0 size=N/A time=00:12:39.63 bitrate=N/A speed=17.1x    frame=18427 fps=411 q=-0.0 size=N/A time=00:12:48.55 bitrate=N/A speed=17.1x    frame=18611 fps=410 q=-0.0 size=N/A time=00:12:56.23 bitrate=N/A speed=17.1x    frame=18799 fps=410 q=-0.0 size=N/A time=00:13:04.07 bitrate=N/A speed=17.1x    frame=19046 fps=410 q=-0.0 size=N/A time=00:13:14.37 bitrate=N/A speed=17.1x    frame=19298 fps=411 q=-0.0 size=N/A time=00:13:24.88 bitrate=N/A speed=17.2x    frame=19521 fps=411 q=-0.0 size=N/A time=00:13:34.18 bitrate=N/A speed=17.2x    frame=19765 fps=412 q=-0.0 size=N/A time=00:13:44.36 bitrate=N/A speed=17.2x    frame=20019 fps=413 q=-0.0 size=N/A time=00:13:54.95 bitrate=N/A speed=17.2x    frame=20234 fps=413 q=-0.0 size=N/A time=00:14:03.92 bitrate=N/A speed=17.2x    frame=20469 fps=413 q=-0.0 size=N/A time=00:14:13.72 bitrate=N/A speed=17.2x    frame=20718 fps=414 q=-0.0 size=N/A time=00:14:24.11 bitrate=N/A speed=17.3x    frame=20972 fps=415 q=-0.0 size=N/A time=00:14:34.70 bitrate=N/A speed=17.3x    frame=21239 fps=416 q=-0.0 size=N/A time=00:14:45.84 bitrate=N/A speed=17.3x    frame=21503 fps=417 q=-0.0 size=N/A time=00:14:56.85 bitrate=N/A speed=17.4x    frame=21786 fps=418 q=-0.0 size=N/A time=00:15:08.65 bitrate=N/A speed=17.4x    frame=22030 fps=419 q=-0.0 size=N/A time=00:15:18.83 bitrate=N/A speed=17.5x    frame=22292 fps=420 q=-0.0 size=N/A time=00:15:29.76 bitrate=N/A speed=17.5x    frame=22556 fps=420 q=-0.0 size=N/A time=00:15:40.77 bitrate=N/A speed=17.5x    frame=22820 fps=421 q=-0.0 size=N/A time=00:15:51.78 bitrate=N/A speed=17.6x    frame=23078 fps=422 q=-0.0 size=N/A time=00:16:02.54 bitrate=N/A speed=17.6x    frame=23324 fps=423 q=-0.0 size=N/A time=00:16:12.80 bitrate=N/A speed=17.6x    frame=23579 fps=423 q=-0.0 size=N/A time=00:16:23.44 bitrate=N/A speed=17.7x    frame=23783 fps=423 q=-0.0 size=N/A time=00:16:31.94 bitrate=N/A speed=17.6x    frame=23907 fps=421 q=-0.0 size=N/A time=00:16:37.12 bitrate=N/A speed=17.6x    frame=24105 fps=421 q=-0.0 size=N/A time=00:16:45.37 bitrate=N/A speed=17.6x    frame=24300 fps=421 q=-0.0 size=N/A time=00:16:53.51 bitrate=N/A speed=17.5x    frame=24553 fps=421 q=-0.0 size=N/A time=00:17:04.06 bitrate=N/A speed=17.6x    frame=24808 fps=422 q=-0.0 size=N/A time=00:17:14.70 bitrate=N/A speed=17.6x    frame=25045 fps=422 q=-0.0 size=N/A time=00:17:24.58 bitrate=N/A speed=17.6x    frame=25298 fps=423 q=-0.0 size=N/A time=00:17:35.13 bitrate=N/A speed=17.6x    frame=25566 fps=424 q=-0.0 size=N/A time=00:17:46.31 bitrate=N/A speed=17.7x    frame=25839 fps=425 q=-0.0 size=N/A time=00:17:57.70 bitrate=N/A speed=17.7x    frame=26126 fps=426 q=-0.0 size=N/A time=00:18:09.67 bitrate=N/A speed=17.8x    frame=26390 fps=426 q=-0.0 size=N/A time=00:18:20.68 bitrate=N/A speed=17.8x    frame=26645 fps=427 q=-0.0 size=N/A time=00:18:31.31 bitrate=N/A speed=17.8x    frame=26900 fps=427 q=-0.0 size=N/A time=00:18:41.95 bitrate=N/A speed=17.8x    frame=27105 fps=427 q=-0.0 size=N/A time=00:18:50.50 bitrate=N/A speed=17.8x    frame=27369 fps=428 q=-0.0 size=N/A time=00:19:01.51 bitrate=N/A speed=17.8x    frame=27634 fps=429 q=-0.0 size=N/A time=00:19:12.56 bitrate=N/A speed=17.9x    frame=27873 fps=429 q=-0.0 size=N/A time=00:19:22.53 bitrate=N/A speed=17.9x    frame=28122 fps=429 q=-0.0 size=N/A time=00:19:32.92 bitrate=N/A speed=17.9x    frame=28389 fps=430 q=-0.0 size=N/A time=00:19:44.05 bitrate=N/A speed=17.9x    frame=28662 fps=431 q=-0.0 size=N/A time=00:19:55.44 bitrate=N/A speed=  18x    frame=28937 fps=432 q=-0.0 size=N/A time=00:20:06.91 bitrate=N/A speed=  18x    frame=29213 fps=432 q=-0.0 size=N/A time=00:20:18.42 bitrate=N/A speed=  18x    frame=29437 fps=432 q=-0.0 size=N/A time=00:20:27.76 bitrate=N/A speed=  18x    frame=29659 fps=432 q=-0.0 size=N/A time=00:20:37.02 bitrate=N/A speed=  18x    frame=29909 fps=433 q=-0.0 size=N/A time=00:20:47.45 bitrate=N/A speed=  18x    frame=30133 fps=433 q=-0.0 size=N/A time=00:20:56.79 bitrate=N/A speed=18.1x    frame=30350 fps=433 q=-0.0 size=N/A time=00:21:05.84 bitrate=N/A speed=  18x    frame=30606 fps=433 q=-0.0 size=N/A time=00:21:16.52 bitrate=N/A speed=18.1x    frame=30824 fps=433 q=-0.0 size=N/A time=00:21:25.61 bitrate=N/A speed=18.1x    frame=31065 fps=433 q=-0.0 size=N/A time=00:21:35.66 bitrate=N/A speed=18.1x    frame=31319 fps=434 q=-0.0 size=N/A time=00:21:46.26 bitrate=N/A speed=18.1x    frame=31575 fps=434 q=-0.0 size=N/A time=00:21:56.94 bitrate=N/A speed=18.1x    frame=31806 fps=434 q=-0.0 size=N/A time=00:22:06.57 bitrate=N/A speed=18.1x    frame=32039 fps=434 q=-0.0 size=N/A time=00:22:16.29 bitrate=N/A speed=18.1x    frame=32285 fps=435 q=-0.0 size=N/A time=00:22:26.55 bitrate=N/A speed=18.1x    frame=32513 fps=435 q=-0.0 size=N/A time=00:22:36.06 bitrate=N/A speed=18.1x    frame=32689 fps=434 q=-0.0 size=N/A time=00:22:43.40 bitrate=N/A speed=18.1x    frame=32836 fps=433 q=-0.0 size=N/A time=00:22:49.53 bitrate=N/A speed=18.1x    frame=32983 fps=432 q=-0.0 size=N/A time=00:22:55.66 bitrate=N/A speed=  18x    frame=33192 fps=432 q=-0.0 size=N/A time=00:23:04.38 bitrate=N/A speed=  18x    frame=33370 fps=431 q=-0.0 size=N/A time=00:23:11.80 bitrate=N/A speed=  18x    frame=33525 fps=430 q=-0.0 size=N/A time=00:23:18.27 bitrate=N/A speed=  18x    frame=33717 fps=430 q=-0.0 size=N/A time=00:23:26.27 bitrate=N/A speed=17.9x    frame=33939 fps=430 q=-0.0 size=N/A time=00:23:35.53 bitrate=N/A speed=17.9x    frame=34110 fps=429 q=-0.0 size=N/A time=00:23:42.67 bitrate=N/A speed=17.9x    frame=34258 fps=428 q=-0.0 size=N/A time=00:23:48.84 bitrate=N/A speed=17.9x    frame=34398 fps=427 q=-0.0 size=N/A time=00:23:54.68 bitrate=N/A speed=17.8x    frame=34549 fps=427 q=-0.0 size=N/A time=00:24:00.98 bitrate=N/A speed=17.8x    frame=34713 fps=426 q=-0.0 size=N/A time=00:24:07.82 bitrate=N/A speed=17.8x    [Parsed_psnr_10 @ 000001c9d11839c0] PSNR y:48.221620 u:50.394990 v:49.736454 average:48.750718 min:38.565792 max:inf
[out#0/null @ 000001c9c45067c0] video:14975KiB audio:272580KiB subtitle:0KiB other streams:0KiB global headers:0KiB muxing overhead: unknown
frame=34852 fps=426 q=-0.0 Lsize=N/A time=00:24:13.61 bitrate=N/A speed=17.8x    
